HIERARCHY
ROOT Hips
{
 OFFSET 0.000000 0.000000 0.000000
 CHANNELS 6 Xposition Yposition Zposition Yrotation Xrotation Zrotation
 JOINT Chest
 {
  OFFSET 0.000000 9.585900 0.002600
  CHANNELS 3 Yrotation Xrotation Zrotation
  JOINT Chest2
  {
   OFFSET 0.000000 9.601200 -0.005300
   CHANNELS 3 Yrotation Xrotation Zrotation
   JOINT Chest3
   {
    OFFSET 0.000000 9.561800 0.000000
    CHANNELS 3 Yrotation Xrotation Zrotation
    JOINT Chest4
    {
     OFFSET 0.000000 9.552100 0.000000
     CHANNELS 3 Yrotation Xrotation Zrotation
     JOINT Neck
     {
      OFFSET 0.000000 14.453000 0.000000
      CHANNELS 3 Yrotation Xrotation Zrotation
      JOINT Head
      {
       OFFSET 0.000000 8.936500 -0.011300
       CHANNELS 3 Yrotation Xrotation Zrotation
       End Site
       {
        OFFSET 0.000000 17.073600 -0.006000
       }
      }
     }
     JOINT RightCollar
     {
      OFFSET -2.921100 9.558500 0.000000
      CHANNELS 3 Yrotation Xrotation Zrotation
      JOINT RightShoulder
      {
       OFFSET -13.519700 0.000000 0.000000
       CHANNELS 3 Yrotation Xrotation Zrotation
       JOINT RightElbow
       {
        OFFSET 0.000000 -29.696600 0.000000
        CHANNELS 3 Yrotation Xrotation Zrotation
        JOINT RightWrist
        {
         OFFSET 0.000000 -24.004700 0.000000
         CHANNELS 3 Yrotation Xrotation Zrotation
         End Site
         {
          OFFSET 0.000000 -17.728500 0.000000
         }
        }
       }
      }
     }
     JOINT LeftCollar
     {
      OFFSET 2.921100 9.558500 0.000000
      CHANNELS 3 Yrotation Xrotation Zrotation
      JOINT LeftShoulder
      {
       OFFSET 13.519700 0.000000 0.000000
       CHANNELS 3 Yrotation Xrotation Zrotation
       JOINT LeftElbow
       {
        OFFSET 0.000000 -29.696600 0.000000
        CHANNELS 3 Yrotation Xrotation Zrotation
        JOINT LeftWrist
        {
         OFFSET 0.000000 -24.004700 0.000000
         CHANNELS 3 Yrotation Xrotation Zrotation
         End Site
         {
          OFFSET 0.000000 -17.728500 0.000000
         }
        }
       }
      }
     }
    }
   }
  }
 }
 JOINT RightHip
 {
  OFFSET -7.771700 -0.012900 -0.001300
  CHANNELS 3 Yrotation Xrotation Zrotation
  JOINT RightKnee
  {
   OFFSET 0.000000 -40.869800 0.001200
   CHANNELS 3 Yrotation Xrotation Zrotation
   JOINT RightAnkle
   {
    OFFSET 0.000000 -39.717900 0.002100
    CHANNELS 3 Yrotation Xrotation Zrotation
    JOINT RightToe
    {
     OFFSET 0.000000 -4.965400 11.033500
     CHANNELS 3 Yrotation Xrotation Zrotation
     End Site
     {
      OFFSET 0.000000 -1.423100 5.872300
     }
    }
   }
  }
 }
 JOINT LeftHip
 {
  OFFSET 7.771700 -0.012900 -0.001300
  CHANNELS 3 Yrotation Xrotation Zrotation
  JOINT LeftKnee
  {
   OFFSET 0.000000 -40.869800 0.001200
   CHANNELS 3 Yrotation Xrotation Zrotation
   JOINT LeftAnkle
   {
    OFFSET 0.000000 -39.717900 0.002100
    CHANNELS 3 Yrotation Xrotation Zrotation
    JOINT LeftToe
    {
     OFFSET 0.000000 -4.965400 11.033500
     CHANNELS 3 Yrotation Xrotation Zrotation
     End Site
     {
      OFFSET 0.000000 -1.423100 5.872300
     }
    }
   }
  }
 }
}
MOTION
Frames: 9
Frame Time: 0.008333
0.000000 85.388000 0.000000 0.000000 -5.767877 0.000000 0.000000 11.653817 0.000000 0.000000 -5.885947 0.000000 0.000000 -0.000000 0.000000 0.000000 -0.000000 0.000000 0.000000 12.528835 0.000000 0.000000 0.711642 0.000000 0.000000 -0.000000 0.000000 0.000000 0.000000 -90.000000 0.000000 -2.309062 0.000000 0.000000 2.309062 0.000000 0.000000 -0.000000 0.000000 0.000000 -0.000000 90.000000 0.000000 -2.309062 0.000000 0.000000 2.309062 0.000000 0.000000 8.520406 0.000000 0.000000 1.905762 0.000000 -0.000000 -4.658285 0.000000 0.000000 -0.000000 0.000000 0.000000 8.520406 0.000000 0.000000 1.905762 0.000000 -0.000000 -4.658285 0.000000 0.000000 -0.000000 0.000000
-221.261474 57.804131 -74.699068 163.529287 -3.570780 0.609396 2.590600 5.352088 1.081807 0.095956 0.193337 0.009125 0.101231 0.323408 0.014874 2.186121 5.190346 0.343184 1.254168 17.151016 -1.152043 2.762237 -3.885406 -2.551422 2.439109 9.051644 1.659925 -1.901813 -6.898704 -11.947641 -112.775525 -88.118638 134.105800 -2.504011 6.552000 -33.476066 -4.632830 9.158289 -2.954734 13.271137 -4.886827 3.201492 68.565678 -84.517917 -92.937981 -1.717743 6.960196 14.509141 -9.917463 -68.351981 1.783775 -39.656003 72.586844 -41.658799 -5.717291 -8.057064 2.305472 -0.138607 0.750969 -0.155873 -2.883716 -70.521917 14.833665 42.603332 64.984728 35.606432 -17.983005 -9.349295 2.583016 -0.253730 -1.067440 -0.123505
-221.265705 57.804793 -74.698797 163.495339 -3.575507 0.668810 2.600462 5.355152 1.022687 0.077726 0.188344 0.008709 0.101932 0.324741 0.014466 2.162673 5.179839 0.324978 1.288091 17.180609 -1.156185 2.772622 -3.848660 -2.573865 2.426315 9.065367 1.660866 -1.887874 -6.869850 -11.924308 -112.354213 -88.123945 133.686386 -2.487682 6.512490 -33.468215 -4.588506 9.196928 -2.940819 13.298529 -4.869320 3.192741 68.924788 -84.586599 -93.250363 -1.700670 6.949704 14.504716 -9.943285 -68.357164 1.752898 -39.445894 72.626667 -41.491185 -5.621070 -8.074608 2.317992 -0.224555 0.763452 -0.193510 -2.709789 -70.522132 14.673088 42.632275 64.982768 35.634232 -17.985860 -9.300972 2.587668 -0.279735 -1.078645 -0.132088
-221.260249 57.805371 -74.695518 163.444407 -3.580275 0.674993 2.615347 5.353349 1.015615 0.078063 0.188437 0.008411 0.100770 0.324094 0.015851 2.162892 5.180152 0.317204 1.309332 17.193825 -1.160421 2.773540 -3.820372 -2.592903 2.442932 9.072676 1.661461 -1.890976 -6.860148 -11.914117 -112.338187 -88.125485 133.676622 -2.501548 6.495267 -33.493385 -4.561222 9.214408 -2.935414 13.324474 -4.843115 3.186297 69.225269 -84.611513 -93.542067 -1.669166 6.945170 14.570762 -9.989209 -68.351254 1.802372 -39.373194 72.631763 -41.396990 -5.586514 -8.078867 2.271437 -0.218696 0.767224 -0.189398 -2.654578 -70.517084 14.667087 42.620286 64.990706 35.629668 -17.975093 -9.282429 2.589438 -0.282368 -1.092105 -0.139491
-221.254189 57.806038 -74.694037 163.402089 -3.596724 0.685871 2.617960 5.362446 1.006474 0.077957 0.188296 0.008140 0.106755 0.325033 0.014351 2.160720 5.181968 0.310498 1.326948 17.204022 -1.164598 2.785533 -3.814051 -2.598086 2.457692 9.078792 1.660468 -1.891656 -6.852151 -11.903438 -112.230600 -88.127982 133.572755 -2.520472 6.479379 -33.510378 -4.536032 9.228728 -2.930209 13.386688 -4.794323 3.172680 69.391103 -84.581432 -93.719192 -1.633685 6.920583 14.595261 -10.027735 -68.336575 1.834937 -39.301538 72.646261 -41.304462 -5.565383 -8.085268 2.231096 -0.208238 0.770142 -0.180256 -2.597239 -70.499128 14.640482 42.636485 64.988953 35.651949 -17.949833 -9.264436 2.594415 -0.300338 -1.106963 -0.153210
-221.247811 57.806591 -74.692195 163.371181 -3.611425 0.698658 2.614611 5.370285 0.993726 0.077949 0.188499 0.007836 0.118383 0.327338 0.013959 2.158228 5.183960 0.305795 1.320980 17.219793 -1.177452 2.796924 -3.781814 -2.620358 2.441020 9.081625 1.657710 -1.897680 -6.835227 -11.878042 -111.512773 -88.111215 132.841677 -2.497493 6.460116 -33.484496 -4.548991 9.256966 -2.916323 13.472609 -4.775436 3.138164 69.240483 -84.503748 -93.591232 -1.611413 6.883882 14.607619 -10.070645 -68.324380 1.863247 -39.244139 72.658366 -41.228717 -5.547680 -8.091102 2.195660 -0.219095 0.775758 -0.160689 -2.542909 -70.484898 14.606021 42.662182 64.983519 35.680405 -17.924734 -9.235207 2.602395 -0.341046 -1.119839 -0.168347
-221.234735 57.806915 -74.688339 163.351268 -3.625656 0.673700 2.610978 5.376036 1.018668 0.077830 0.188599 0.007673 0.137624 0.333284 0.013634 2.157106 5.184606 0.304283 1.271444 17.243743 -1.202391 2.817647 -3.713622 -2.661964 2.381297 9.077907 1.653424 -1.870722 -6.822008 -11.857633 -111.059249 -88.103525 132.389892 -2.480751 6.453270 -33.470722 -4.546810 9.261270 -2.913380 13.518433 -4.744206 3.122656 69.081285 -84.422882 -93.457718 -1.574503 6.851554 14.626520 -10.218343 -68.305167 1.985649 -39.255381 72.662937 -41.167788 -5.572731 -8.106169 2.088615 -0.135582 0.772515 -0.136587 -2.599939 -70.468403 14.685624 42.668693 64.980913 35.687755 -17.898246 -9.221077 2.613094 -0.325647 -1.111734 -0.176705
-221.225045 57.807094 -74.685871 163.325574 -3.641789 0.675546 2.610129 5.383864 1.018539 0.059644 0.180443 0.008993 0.155227 0.341631 0.011811 2.150874 5.186997 0.299246 1.273626 17.259674 -1.210400 2.826061 -3.676908 -2.679696 2.377602 9.083092 1.654185 -1.894510 -6.810893 -11.821738 -111.211234 -88.109154 132.569268 -2.457145 6.448342 -33.448011 -4.533896 9.280109 -2.902218 13.575562 -4.721413 3.092941 68.928426 -84.340240 -93.325966 -1.543754 6.819639 14.645231 -10.303727 -68.288944 2.053050 -39.210728 72.674795 -41.108806 -5.539300 -8.116081 2.059502 -0.132582 0.773030 -0.139799 -2.579017 -70.449365 14.688332 42.674390 64.974282 35.698377 -17.896748 -9.201961 2.608001 -0.360001 -1.081414 -0.175507
-221.214929 57.807047 -74.683102 163.299851 -3.657285 0.679059 2.588147 5.379274 1.017913 0.076936 0.188403 0.007203 0.158583 0.343005 0.010235 2.110398 5.176937 0.293972 1.309904 17.291325 -1.219129 2.842753 -3.663132 -2.689179 2.411038 9.104674 1.653747 -1.883034 -6.807333 -11.813430 -110.895008 -88.106302 132.244349 -2.468647 6.442683 -33.451343 -4.485403 9.313166 -2.894253 13.620822 -4.707366 3.065471 68.733736 -84.262311 -93.141715 -1.521582 6.790107 14.666014 -10.361617 -68.273069 2.102766 -39.185707 72.681697 -41.062426 -5.521557 -8.128353 2.008660 -0.116703 0.777912 -0.120078 -2.559525 -70.431682 14.692506 42.679469 64.966785 35.707295 -17.898941 -9.166689 2.605253 -0.365982 -1.086331 -0.178404
